# xmcd
#
# Track frame offsets: 
#        150
#        25001
#        44048
#        68001
#        91945
#        106787
#        127422
#        153663
#        171654
#        194866
#
# Disc length: 2828 seconds
#
# Revision: 1
# Processed by: cddbd v1.5.2PL0 Copyright (c) Steve Scherf et al.
# Submitted via: ExactAudioCopy v0.99pb5
#
DISCID=940b0a0a
DTITLE=Matthew E. White - Fresh Blood
DYEAR=2015
DGENRE=Rock
TTITLE0=Take Care My Baby
TTITLE1=Rock and Roll Is Cold
TTITLE2=Fruit Trees
TTITLE3=Holy Moly
TTITLE4=Circle 'Round The Sun
TTITLE5=Feeling Good Is Good Enough
TTITLE6=Tranquility
TTITLE7=Golden Robes
TTITLE8=Vision
TTITLE9=Love Is Deep
EXTD=
EXTT0=
EXTT1=
EXTT2=
EXTT3=
EXTT4=
EXTT5=
EXTT6=
EXTT7=
EXTT8=
EXTT9=
PLAYORDER=
